<!-- icon666.com - MILLIONS vector ICONS FREE --><svg viewBox="0 0 512 512" xmlns="http://www.w3.org/2000/svg"><g id="Layer_2" data-name="Layer 2"><path d="m370.4 458.009a29.358 29.358 0 0 1 -15.026-4.179l-94.555-56.142a9.431 9.431 0 0 0 -9.634 0l-94.557 56.142a29.1 29.1 0 0 1 -29.575.279 30.539 30.539 0 0 1 -15.453-26.921v-323.188a50.057 50.057 0 0 1 50-50h188.8a50.057 50.057 0 0 1 50 50v323.188a30.539 30.539 0 0 1 -15.453 26.921 29.341 29.341 0 0 1 -14.547 3.9z" fill="#caecfc" style="fill: rgb(22, 30, 53);"></path><path d="m370.4 458.009a29.358 29.358 0 0 1 -15.026-4.179l-94.555-56.142a9.431 9.431 0 0 0 -9.634 0l-94.557 56.142a29.1 29.1 0 0 1 -29.575.279 30.539 30.539 0 0 1 -15.453-26.921v-323.188a50.057 50.057 0 0 1 50-50h188.8a50.057 50.057 0 0 1 50 50v323.188a30.539 30.539 0 0 1 -15.453 26.921 29.341 29.341 0 0 1 -14.547 3.9zm-4.815-21.376a9.254 9.254 0 0 0 9.47.1 10.769 10.769 0 0 0 5.347-9.541v-323.192a30.034 30.034 0 0 0 -30-30h-188.802a30.034 30.034 0 0 0 -30 30v323.188a10.769 10.769 0 0 0 5.347 9.541 9.244 9.244 0 0 0 9.47-.1l94.555-56.142a29.419 29.419 0 0 1 30.056 0z" fill="#39a2db" style="fill: rgb(48, 113, 231);"></path></g></svg>